ffmpeg started on 2016-12-05 at 05:19:41
Report written to "Output/x264/results/ffmpeg/crowd_run_2160p50veryfast9000k.log"
Command line:
Tools/ffmpeg/ffmpeg -benchmark -y -i Input/y4m/crowd_run_2160p50.y4m -c:v libx264 -preset veryfast -b:v 9000k -an Output/x264/encoded/crowd_run_2160p50veryfast9000k.mkv
ffmpeg version N-82227-gdb23fde Copyright (c) 2000-2016 the FFmpeg developers
  built with gcc 5.4.0 (Ubuntu 5.4.0-6ubuntu1~16.04.2) 20160609
  configuration: --prefix=/home/jaroslav/ffmpeg_build --pkg-config-flags=--static --extra-cflags=-I/home/jaroslav/ffmpeg_build/include --extra-ldflags=-L/home/jaroslav/ffmpeg_build/lib --bindir=/home/jaroslav/bin --enable-gpl --enable-libass --enable-libfdk-aac --enable-libfreetype --enable-libmp3lame --enable-libopus --enable-libtheora --enable-libvorbis --enable-libvpx --enable-libx264 --enable-libx265 --enable-nvenc --enable-libmfx --enable-libxvid --enable-libgsm --enable-libopencore-amrnb --enable-version3 --enable-nonfree
  libavutil      55. 35.100 / 55. 35.100
  libavcodec     57. 66.101 / 57. 66.101
  libavformat    57. 57.100 / 57. 57.100
  libavdevice    57.  2.100 / 57.  2.100
  libavfilter     6. 66.100 /  6. 66.100
  libswscale      4.  3.100 /  4.  3.100
  libswresample   2.  4.100 /  2.  4.100
  libpostproc    54.  2.100 / 54.  2.100
Input #0, yuv4mpegpipe, from 'Input/y4m/crowd_run_2160p50.y4m':
  Duration: 00:00:10.00, start: 0.000000, bitrate: 4976642 kb/s
    Stream #0:0: Video: rawvideo (I420 / 0x30323449), yuv420p(progressive), 3840x2160, SAR 1:1 DAR 16:9, 50 fps, 50 tbr, 50 tbn, 50 tbc
[libx264 @ 0x45511c0] using SAR=1/1
[libx264 @ 0x45511c0] using cpu capabilities: MMX2 SSE2Fast SSSE3 SSE4.2 AVX FMA3 AVX2 LZCNT BMI2
[libx264 @ 0x45511c0] profile High, level 5.2
[libx264 @ 0x45511c0] 264 - core 148 - H.264/MPEG-4 AVC codec - Copyleft 2003-2016 - http://www.videolan.org/x264.html - options: cabac=1 ref=1 deblock=1:0:0 analyse=0x3:0x113 me=hex subme=2 psy=1 psy_rd=1.00:0.00 mixed_ref=0 me_range=16 chroma_me=1 trellis=0 8x8dct=1 cqm=0 deadzone=21,11 fast_pskip=1 chroma_qp_offset=0 threads=6 lookahead_threads=2 sliced_threads=0 nr=0 decimate=1 interlaced=0 bluray_compat=0 constrained_intra=0 bframes=3 b_pyramid=2 b_adapt=1 b_bias=0 direct=1 weightb=1 open_gop=0 weightp=1 keyint=250 keyint_min=25 scenecut=40 intra_refresh=0 rc_lookahead=10 rc=abr mbtree=1 bitrate=9000 ratetol=1.0 qcomp=0.60 qpmin=0 qpmax=69 qpstep=4 ip_ratio=1.40 aq=1:1.00
Output #0, matroska, to 'Output/x264/encoded/crowd_run_2160p50veryfast9000k.mkv':
  Metadata:
    encoder         : Lavf57.57.100
    Stream #0:0: Video: h264 (libx264) (H264 / 0x34363248), yuv420p, 3840x2160 [SAR 1:1 DAR 16:9], q=-1--1, 9000 kb/s, 50 fps, 1k tbn, 50 tbc
    Metadata:
      encoder         : Lavc57.66.101 libx264
    Side data:
      cpb: bitrate max/min/avg: 0/0/9000000 buffer size: 0 vbv_delay: -1
Stream mapping:
  Stream #0:0 -> #0:0 (rawvideo (native) -> h264 (libx264))
Press [q] to stop, [?] for help
frame=   11 fps=0.0 q=0.0 size=       0kB time=00:00:00.00 bitrate=N/A speed=   0x    frame=   22 fps= 19 q=35.0 size=       1kB time=-00:00:00.01 bitrate=N/A speed=N/A    frame=   33 fps= 20 q=49.0 size=       1kB time=00:00:00.20 bitrate=  29.2kbits/s speed=0.12x    frame=   46 fps= 21 q=47.0 size=       1kB time=00:00:00.46 bitrate=  12.7kbits/s speed=0.207x    frame=   60 fps= 22 q=46.0 size=       1kB time=00:00:00.74 bitrate=   7.9kbits/s speed=0.27x    frame=   73 fps= 22 q=46.0 size=       1kB time=00:00:01.00 bitrate=   5.9kbits/s speed=0.307x    frame=   86 fps= 23 q=45.0 size=       1kB time=00:00:01.26 bitrate=   4.7kbits/s speed=0.334x    frame=  101 fps= 23 q=45.0 size=       1kB time=00:00:01.56 bitrate=   3.8kbits/s speed=0.363x    frame=  114 fps= 24 q=45.0 size=       1kB time=00:00:01.82 bitrate=   3.2kbits/s speed=0.378x    frame=  128 fps= 24 q=44.0 size=       1kB time=00:00:02.10 bitrate=   2.8kbits/s speed=0.395x    frame=  142 fps= 24 q=44.0 size=       1kB time=00:00:02.38 bitrate=   2.5kbits/s speed=0.407x    frame=  152 fps= 23 q=44.0 size=       1kB time=00:00:02.58 bitrate=   2.3kbits/s speed=0.392x    frame=  166 fps= 23 q=44.0 size=       1kB time=00:00:02.86 bitrate=   2.0kbits/s speed=0.403x    frame=  177 fps= 23 q=44.0 size=       1kB time=00:00:03.08 bitrate=   1.9kbits/s speed=0.395x    frame=  190 fps= 23 q=44.0 size=       1kB time=00:00:03.34 bitrate=   1.8kbits/s speed=0.401x    frame=  204 fps= 23 q=44.0 size=       1kB time=00:00:03.62 bitrate=   1.6kbits/s speed=0.409x    frame=  218 fps= 23 q=44.0 size=       1kB time=00:00:03.90 bitrate=   1.5kbits/s speed=0.415x    frame=  232 fps= 23 q=44.0 size=       1kB time=00:00:04.18 bitrate=   1.4kbits/s speed=0.422x    frame=  245 fps= 24 q=44.0 size=       1kB time=00:00:04.44 bitrate=   1.3kbits/s speed=0.426x    frame=  258 fps= 24 q=44.0 size=    5163kB time=00:00:04.70 bitrate=8997.5kbits/s speed=0.429x    frame=  268 fps= 23 q=44.0 size=    5163kB time=00:00:04.90 bitrate=8630.3kbits/s speed=0.428x    frame=  281 fps= 23 q=44.0 size=    5569kB time=00:00:05.16 bitrate=8840.3kbits/s speed=0.431x    frame=  295 fps= 24 q=44.0 size=    5569kB time=00:00:05.44 bitrate=8385.4kbits/s speed=0.436x    frame=  308 fps= 24 q=44.0 size=    5569kB time=00:00:05.70 bitrate=8003.0kbits/s speed=0.439x    frame=  316 fps= 23 q=44.0 size=    5569kB time=00:00:05.86 bitrate=7784.5kbits/s speed=0.432x    frame=  329 fps= 23 q=44.0 size=    5569kB time=00:00:06.12 bitrate=7453.8kbits/s speed=0.434x    frame=  342 fps= 23 q=44.0 size=    5569kB time=00:00:06.38 bitrate=7150.1kbits/s speed=0.437x    frame=  355 fps= 23 q=44.0 size=    5569kB time=00:00:06.64 bitrate=6870.2kbits/s speed=0.439x    frame=  368 fps= 24 q=44.0 size=    5569kB time=00:00:06.90 bitrate=6611.3kbits/s speed=0.441x    frame=  374 fps= 23 q=44.0 size=    5569kB time=00:00:07.02 bitrate=6498.3kbits/s speed=0.434x    frame=  387 fps= 23 q=44.0 size=    5569kB time=00:00:07.28 bitrate=6266.3kbits/s speed=0.436x    frame=  401 fps= 23 q=44.0 size=    5569kB time=00:00:07.56 bitrate=6034.2kbits/s speed=0.439x    frame=  414 fps= 23 q=44.0 size=    5569kB time=00:00:07.82 bitrate=5833.6kbits/s speed=0.441x    frame=  428 fps= 23 q=44.0 size=    5569kB time=00:00:08.10 bitrate=5632.0kbits/s speed=0.442x    frame=  440 fps= 23 q=44.0 size=    5569kB time=00:00:08.34 bitrate=5470.0kbits/s speed=0.435x    frame=  453 fps= 23 q=44.0 size=    5569kB time=00:00:08.60 bitrate=5304.6kbits/s speed=0.438x    frame=  465 fps= 23 q=44.0 size=    5569kB time=00:00:08.84 bitrate=5160.6kbits/s speed=0.439x    frame=  478 fps= 23 q=44.0 size=    5569kB time=00:00:09.10 bitrate=5013.2kbits/s speed=0.44x    frame=  487 fps= 23 q=44.0 size=    5569kB time=00:00:09.28 bitrate=4915.9kbits/s speed=0.435x    frame=  500 fps= 23 q=44.0 size=    5569kB time=00:00:09.54 bitrate=4782.0kbits/s speed=0.437x    frame=  500 fps= 22 q=-1.0 Lsize=   11104kB time=00:00:09.94 bitrate=9150.2kbits/s speed=0.446x    
video:11099kB audio:0kB subtitle:0kB other streams:0kB global headers:0kB muxing overhead: 0.040499%
bench: utime=67.324s
bench: maxrss=1092588kB
[libx264 @ 0x45511c0] frame I:2     Avg QP:35.04  size:302040
[libx264 @ 0x45511c0] frame P:126   Avg QP:43.18  size: 48781
[libx264 @ 0x45511c0] frame B:372   Avg QP:45.67  size: 12405
[libx264 @ 0x45511c0] consecutive B-frames:  0.8%  0.0%  0.0% 99.2%
[libx264 @ 0x45511c0] mb I  I16..4: 21.8% 60.9% 17.3%
[libx264 @ 0x45511c0] mb P  I16..4:  7.1% 12.0%  0.0%  P16..4: 18.7%  5.8%  1.5%  0.0%  0.0%    skip:54.9%
[libx264 @ 0x45511c0] mb B  I16..4:  0.8%  0.5%  0.0%  B16..8: 11.6%  1.8%  0.0%  direct: 2.3%  skip:82.9%  L0:43.6% L1:54.5% BI: 2.0%
[libx264 @ 0x45511c0] final ratefactor: 36.12
[libx264 @ 0x45511c0] 8x8 transform intra:58.7% inter:50.0%
[libx264 @ 0x45511c0] coded y,uvDC,uvAC intra: 22.8% 43.9% 11.7% inter: 0.9% 4.6% 0.1%
[libx264 @ 0x45511c0] i16 v,h,dc,p: 46% 26% 19% 10%
[libx264 @ 0x45511c0] i8 v,h,dc,ddl,ddr,vr,hd,vl,hu: 18% 14% 41%  5%  4%  5%  4%  5%  5%
[libx264 @ 0x45511c0] i4 v,h,dc,ddl,ddr,vr,hd,vl,hu: 21% 17% 11%  9%  9%  9%  8%  8%  8%
[libx264 @ 0x45511c0] i8c dc,h,v,p: 74%  9% 15%  2%
[libx264 @ 0x45511c0] Weighted P-Frames: Y:1.6% UV:0.0%
[libx264 @ 0x45511c0] kb/s:9091.96
